<?xml version="1.0" encoding="UTF-8" standalone="no"?>
<svg
   xmlns:dc="http://purl.org/dc/elements/1.1/"
   xmlns:cc="http://creativecommons.org/ns#"
   xmlns:rdf="http://www.w3.org/1999/02/22-rdf-syntax-ns#"
   xmlns:svg="http://www.w3.org/2000/svg"
   xmlns="http://www.w3.org/2000/svg"
   xmlns:xlink="http://www.w3.org/1999/xlink"
   xmlns:sodipodi="http://sodipodi.sourceforge.net/DTD/sodipodi-0.dtd"
   xmlns:inkscape="http://www.inkscape.org/namespaces/inkscape"
   version="1.1"
   x="0px"
   y="0px"
   viewBox="0 0 36 40"
   xml:space="preserve"
   id="svg40"
   sodipodi:docname="noun_golfer_1946299.svg"
   width="36"
   height="40"
   inkscape:version="0.92.1 r15371"><metadata
     id="metadata46"><rdf:RDF><cc:Work
         rdf:about=""><dc:format>image/svg+xml</dc:format><dc:type
           rdf:resource="http://purl.org/dc/dcmitype/StillImage" /><dc:title></dc:title></cc:Work></rdf:RDF></metadata><defs
     id="defs44"><linearGradient
       inkscape:collect="always"
       id="linearGradient857"><stop
         style="stop-color:#006234;stop-opacity:1"
         offset="0"
         id="stop853" /><stop
         style="stop-color:#10b523;stop-opacity:1"
         offset="1"
         id="stop855" /></linearGradient><linearGradient
       inkscape:collect="always"
       xlink:href="#linearGradient857"
       id="linearGradient859"
       x1="4.7457628"
       y1="0.99999994"
       x2="32"
       y2="35.207001"
       gradientUnits="userSpaceOnUse" /></defs><sodipodi:namedview
     pagecolor="#ffffff"
     bordercolor="#666666"
     borderopacity="1"
     objecttolerance="10"
     gridtolerance="10"
     guidetolerance="10"
     inkscape:pageopacity="0"
     inkscape:pageshadow="2"
     inkscape:window-width="1280"
     inkscape:window-height="768"
     id="namedview42"
     showgrid="false"
     inkscape:zoom="5.9"
     inkscape:cx="31.936691"
     inkscape:cy="39.798004"
     inkscape:window-x="0"
     inkscape:window-y="16"
     inkscape:window-maximized="1"
     inkscape:current-layer="svg40" /><g
     id="g34"
     transform="matrix(0.66666667,0,0,0.64516129,-3.4180791,-0.357025)"
     style="fill-opacity:1;fill:url(#linearGradient859)"><circle
       cx="31"
       cy="23"
       r="1"
       id="circle2"
       style="fill-opacity:1;fill:url(#linearGradient859)" /><circle
       cx="21"
       cy="23"
       r="1"
       id="circle4"
       style="fill-opacity:1;fill:url(#linearGradient859)" /><path
       d="m 30,28 h -2 c 0,1.103 -0.897,2 -2,2 -1.103,0 -2,-0.897 -2,-2 h -2 c 0,2.206 1.794,4 4,4 2.206,0 4,-1.794 4,-4 z"
       id="path6"
       inkscape:connector-curvature="0"
       style="fill-opacity:1;fill:url(#linearGradient859)" /><rect
       x="25"
       y="47"
       width="2"
       height="2"
       id="rect8"
       style="fill-opacity:1;fill:url(#linearGradient859)" /><rect
       x="25"
       y="51"
       width="2"
       height="2"
       id="rect10"
       style="fill-opacity:1;fill:url(#linearGradient859)" /><path
       d="m 48,41 c -1.35,0 -2.638,0.256 -3.833,0.703 -0.593,-0.44 -1.247,-0.784 -1.953,-1.018 L 32,37.279 V 35.207 C 34.21,33.762 35.864,31.544 36.589,28.94 39.066,28.645 41,26.555 41,24 V 16 C 41,7.729 34.271,1 26,1 17.729,1 11,7.729 11,16 v 8 c 0,2.555 1.934,4.645 4.411,4.94 0.724,2.605 2.379,4.822 4.589,6.267 v 2.072 L 9.787,40.685 C 6.923,41.638 5,44.307 5,47.324 V 63 H 48 C 54.065,63 59,58.065 59,52 59,45.935 54.065,41 48,41 Z M 33.728,39.964 32.386,45.333 27.657,41.955 31.2,39.121 Z M 23,45.371 l 3,-2.143 3,2.143 V 52.5 L 26,54.75 23,52.5 Z M 15,18.763 v 0.338 c -0.743,0.152 -1.416,0.482 -2,0.924 v -3.204 c 0.507,0.704 1.185,1.355 2,1.942 z M 14.241,15 H 37.76 c -1.172,2.58 -6.593,5 -11.759,5 -5.166,0 -10.588,-2.42 -11.76,-5 z M 37,18.763 c 0.815,-0.587 1.493,-1.238 2,-1.941 v 3.204 c -0.584,-0.442 -1.257,-0.773 -2,-0.924 z m -0.042,8.066 C 36.979,26.554 37,26.28 37,26 v -4.816 c 1.161,0.414 2,1.514 2,2.816 0,1.317 -0.859,2.427 -2.042,2.829 z M 26,3 c 6.134,0 11.277,4.276 12.637,10 H 13.363 C 14.723,7.276 19.866,3 26,3 Z M 13,24 c 0,-1.302 0.839,-2.402 2,-2.816 V 26 c 0,0.28 0.021,0.554 0.042,0.829 C 13.859,26.427 13,25.317 13,24 Z m 4,2 v -6.049 c 2.607,1.282 5.886,2.049 9,2.049 3.114,0 6.393,-0.767 9,-2.049 V 26 c 0,4.962 -4.038,9 -9,9 -4.962,0 -9,-4.038 -9,-9 z m 9,11 c 1.412,0 2.758,-0.277 4,-0.764 v 1.283 l -4,3.2 -4,-3.2 V 36.236 C 23.242,36.723 24.588,37 26,37 Z m -5.2,2.121 3.543,2.834 -4.729,3.378 -1.342,-5.37 z M 16,61 v -9 h -2 v 9 H 7 V 47.324 c 0,-2.155 1.374,-4.062 3.419,-4.743 l 5.95,-1.983 2.018,8.069 L 21,46.8 v 6.7 l 5,3.75 5,-3.75 v -6.7 l 2.614,1.867 2.017,-8.069 5.951,1.984 c 0.154,0.051 0.293,0.132 0.44,0.197 C 39.004,44.743 37,48.139 37,52 c 0,3.72 1.861,7.008 4.695,9 z M 53,59.478 V 59 h -2 v 1.475 c -0.638,0.227 -1.306,0.389 -2,0.466 V 59 h -2 v 1.941 c -0.694,-0.077 -1.362,-0.24 -2,-0.466 V 59 h -2 v 0.478 C 42.021,58.822 41.178,57.979 40.522,57 H 41 V 55 H 39.525 C 39.298,54.362 39.136,53.695 39.059,53 H 41 v -2 h -1.941 c 0.077,-0.695 0.24,-1.362 0.466,-2 H 41 v -2 h -0.478 c 0.656,-0.979 1.5,-1.822 2.478,-2.478 V 45 h 2 v -1.475 c 0.638,-0.227 1.306,-0.389 2,-0.466 V 45 h 2 v -1.941 c 0.694,0.077 1.362,0.24 2,0.466 V 45 h 2 v -0.478 c 0.979,0.656 1.822,1.499 2.478,2.478 H 55 v 2 h 1.475 c 0.227,0.638 0.389,1.305 0.466,2 H 55 v 2 h 1.941 c -0.077,0.695 -0.24,1.362 -0.466,2 H 55 v 2 h 0.478 C 54.822,57.979 53.979,58.822 53,59.478 Z"
       id="path12"
       inkscape:connector-curvature="0"
       style="fill-opacity:1;fill:url(#linearGradient859)" /><rect
       x="47"
       y="51"
       width="2"
       height="2"
       id="rect14"
       style="fill-opacity:1;fill:url(#linearGradient859)" /><rect
       x="47"
       y="47"
       width="2"
       height="2"
       id="rect16"
       style="fill-opacity:1;fill:url(#linearGradient859)" /><rect
       x="47"
       y="55"
       width="2"
       height="2"
       id="rect18"
       style="fill-opacity:1;fill:url(#linearGradient859)" /><rect
       x="51"
       y="55"
       width="2"
       height="2"
       id="rect20"
       style="fill-opacity:1;fill:url(#linearGradient859)" /><rect
       x="51"
       y="51"
       width="2"
       height="2"
       id="rect22"
       style="fill-opacity:1;fill:url(#linearGradient859)" /><rect
       x="51"
       y="47"
       width="2"
       height="2"
       id="rect24"
       style="fill-opacity:1;fill:url(#linearGradient859)" /><rect
       x="43"
       y="47"
       width="2"
       height="2"
       id="rect26"
       style="fill-opacity:1;fill:url(#linearGradient859)" /><rect
       x="43"
       y="51"
       width="2"
       height="2"
       id="rect28"
       style="fill-opacity:1;fill:url(#linearGradient859)" /><rect
       x="43"
       y="55"
       width="2"
       height="2"
       id="rect30"
       style="fill-opacity:1;fill:url(#linearGradient859)" /><path
       d="m 26,12 c 2.206,0 4,-1.794 4,-4 0,-2.206 -1.794,-4 -4,-4 -2.206,0 -4,1.794 -4,4 0,2.206 1.794,4 4,4 z m 0,-6 c 1.103,0 2,0.897 2,2 0,1.103 -0.897,2 -2,2 -1.103,0 -2,-0.897 -2,-2 0,-1.103 0.897,-2 2,-2 z"
       id="path32"
       inkscape:connector-curvature="0"
       style="fill-opacity:1;fill:url(#linearGradient859)" /></g></svg>